<?xml version="1.0" encoding="UTF-8" standalone="no"?>
<!-- Created with Inkscape (http://www.inkscape.org/) -->

<svg
   width="512"
   height="512"
   viewBox="0 0 512 512"
   version="1.1"
   id="svg1"
   xml:space="preserve"
   sodipodi:docname="icon.svg"
   inkscape:version="1.3.2 (091e20e, 2023-11-25, custom)"
   xmlns:inkscape="http://www.inkscape.org/namespaces/inkscape"
   xmlns:sodipodi="http://sodipodi.sourceforge.net/DTD/sodipodi-0.dtd"
   xmlns="http://www.w3.org/2000/svg"
   xmlns:svg="http://www.w3.org/2000/svg"><sodipodi:namedview
     id="namedview1"
     pagecolor="#ffffff"
     bordercolor="#000000"
     borderopacity="0.25"
     inkscape:showpageshadow="2"
     inkscape:pageopacity="0.0"
     inkscape:pagecheckerboard="0"
     inkscape:deskcolor="#d1d1d1"
     inkscape:document-units="px"
     inkscape:zoom="0.80175781"
     inkscape:cx="321.16931"
     inkscape:cy="235.1084"
     inkscape:window-width="1920"
     inkscape:window-height="1017"
     inkscape:window-x="-8"
     inkscape:window-y="-8"
     inkscape:window-maximized="1"
     inkscape:current-layer="layer1" /><defs
     id="defs1" /><g
     inkscape:label="Camada 1"
     inkscape:groupmode="layer"
     id="layer1"><g
       id="g1"><rect
         style="fill:#6f67ae;fill-opacity:1;stroke-width:6;stroke-linecap:round;stroke-linejoin:round;paint-order:stroke fill markers"
         id="rect1"
         width="465.22778"
         height="458.99149"
         x="23.697929"
         y="27.439707"
         ry="47.395859" /><path
         d="m 338.52834,313.21277 q 0,20.59065 -7.67103,36.13457 -7.67103,15.54393 -20.79252,26.04112 -13.12149,10.29533 -30.68411,15.54393 -17.56262,5.24859 -37.54766,5.24859 -13.52523,0 -25.23364,-2.22056 -11.50655,-2.22056 -20.38879,-5.24859 -8.88224,-3.22991 -14.93831,-6.66169 -5.85421,-3.43177 -8.47851,-6.05607 -2.6243,-2.6243 -3.83551,-7.46916 -1.00935,-5.04673 -1.00935,-14.33271 0,-6.25794 0.40374,-10.49719 0.40374,-4.23926 1.21121,-6.86355 1.00935,-2.6243 2.42243,-3.63365 1.61496,-1.21121 3.63365,-1.21121 2.82617,0 7.8729,3.43177 5.24859,3.22991 13.32336,7.26729 8.07477,4.03738 19.17757,7.46916 11.30467,3.22991 26.04112,3.22991 9.68972,0 17.36074,-2.22056 7.67103,-2.42243 12.91963,-6.66169 5.45047,-4.23925 8.27663,-10.49719 2.82617,-6.25795 2.82617,-13.92897 0,-8.88225 -4.84486,-15.14019 -4.84486,-6.45981 -12.71775,-11.30467 -7.67103,-5.04673 -17.56262,-9.28598 -9.89159,-4.44112 -20.38878,-9.28598 -10.4972,-4.84486 -20.38879,-10.90094 -9.89158,-6.25794 -17.76448,-14.73644 -7.67103,-8.68038 -12.51589,-20.38879 -4.84486,-11.70841 -4.84486,-28.05981 0,-18.77383 6.86355,-32.90467 7.06542,-14.33271 18.77383,-23.61869 11.91028,-9.48785 27.85795,-14.13084 16.14953,-4.64299 34.11588,-4.64299 9.28598,0 18.57196,1.41308 9.28598,1.41309 17.36075,3.83552 8.07477,2.42243 14.33271,5.45047 6.25794,3.02803 8.27663,5.04672 2.0187,2.0187 2.6243,3.43178 0.80748,1.41308 1.21122,3.83551 0.6056,2.22056 0.80747,5.85421 0.20187,3.43177 0.20187,8.68037 0,5.85421 -0.40374,9.89159 -0.20186,4.03738 -1.00934,6.66168 -0.60561,2.6243 -2.01869,3.83551 -1.21122,1.21122 -3.43178,1.21122 -2.22056,0 -7.06542,-2.82617 -4.84486,-2.82617 -11.91028,-6.05607 -7.06542,-3.43178 -16.3514,-6.05608 -9.28598,-2.82616 -20.38878,-2.82616 -8.68038,0 -15.14019,2.22056 -6.45981,2.01869 -10.90093,5.8542 -4.23925,3.63365 -6.45981,8.88224 -2.0187,5.2486 -2.0187,11.10281 0,8.68037 4.64299,15.14018 4.84486,6.25795 12.71776,11.30467 8.07477,4.84486 18.16822,9.28598 10.09346,4.23926 20.59066,9.08412 10.49719,4.84486 20.59065,11.1028 10.09346,6.05607 17.96635,14.73645 7.8729,8.4785 12.71776,20.18691 4.84486,11.50654 4.84486,27.25234 z"
         id="text1"
         style="font-weight:bold;font-size:413.428px;line-height:0.8;font-family:Calibri;-inkscape-font-specification:'Calibri Bold';text-align:center;letter-spacing:1.40942px;word-spacing:0px;text-anchor:middle;fill:#f7f4ff;stroke-width:8.45644;stroke-linecap:round;stroke-linejoin:round;paint-order:stroke fill markers"
         aria-label="S" /></g></g></svg>
